<svg width="72" height="82" viewBox="0 0 72 82" fill="none" xmlns="http://www.w3.org/2000/svg">
<path d="M28.1875 0C26.1486 0 24.1933 0.809931 22.7516 2.25162C21.3099 3.6933 20.5 5.64865 20.5 7.6875V12.8125C20.5 14.8514 21.3099 16.8067 22.7516 18.2484C24.1933 19.6901 26.1486 20.5 28.1875 20.5H43.5625C45.6014 20.5 47.5567 19.6901 48.9984 18.2484C50.4401 16.8067 51.25 14.8514 51.25 12.8125V7.6875C51.25 5.64865 50.4401 3.6933 48.9984 2.25162C47.5567 0.809931 45.6014 0 43.5625 0L28.1875 0ZM43.5625 5.125C44.2421 5.125 44.8939 5.39498 45.3745 5.87554C45.855 6.3561 46.125 7.00788 46.125 7.6875V12.8125C46.125 13.4921 45.855 14.1439 45.3745 14.6245C44.8939 15.105 44.2421 15.375 43.5625 15.375H28.1875C27.5079 15.375 26.8561 15.105 26.3755 14.6245C25.895 14.1439 25.625 13.4921 25.625 12.8125V7.6875C25.625 7.00788 25.895 6.3561 26.3755 5.87554C26.8561 5.39498 27.5079 5.125 28.1875 5.125H43.5625Z" fill="white"/>
<path d="M15.375 7.6875H10.25C7.53153 7.6875 4.9244 8.76741 3.00216 10.6897C1.07991 12.6119 0 15.219 0 17.9375V71.75C0 74.4685 1.07991 77.0756 3.00216 78.9978C4.9244 80.9201 7.53153 82 10.25 82H61.5C64.2185 82 66.8256 80.9201 68.7478 78.9978C70.6701 77.0756 71.75 74.4685 71.75 71.75V17.9375C71.75 15.219 70.6701 12.6119 68.7478 10.6897C66.8256 8.76741 64.2185 7.6875 61.5 7.6875H56.375V12.8125C56.375 14.4951 56.0436 16.1611 55.3997 17.7156C54.7558 19.2701 53.8121 20.6826 52.6223 21.8723C51.4326 23.0621 50.0201 24.0058 48.4656 24.6497C46.9111 25.2936 45.2451 25.625 43.5625 25.625H28.1875C24.7894 25.625 21.5305 24.2751 19.1277 21.8723C16.7249 19.4695 15.375 16.2106 15.375 12.8125V7.6875ZM50.5018 45.3768L35.1268 60.7518C34.8887 60.9904 34.6059 61.1797 34.2946 61.3089C33.9833 61.4381 33.6496 61.5046 33.3125 61.5046C32.9754 61.5046 32.6417 61.4381 32.3304 61.3089C32.0191 61.1797 31.7363 60.9904 31.4982 60.7518L23.8107 53.0643C23.3296 52.5831 23.0593 51.9305 23.0593 51.25C23.0593 50.5695 23.3296 49.9169 23.8107 49.4357C24.2919 48.9546 24.9445 48.6843 25.625 48.6843C26.3055 48.6843 26.9581 48.9546 27.4393 49.4357L33.3125 55.3141L46.8732 41.7482C47.3544 41.2671 48.007 40.9968 48.6875 40.9968C49.368 40.9968 50.0206 41.2671 50.5018 41.7482C50.9829 42.2294 51.2532 42.882 51.2532 43.5625C51.2532 44.243 50.9829 44.8956 50.5018 45.3768Z" fill="white"/>
</svg>
